<?xml version="1.0" encoding="UTF-8" standalone="no"?>
<!-- Created with Inkscape (http://www.inkscape.org/) -->

<svg
   width="256"
   height="256"
   viewBox="0 0 256 256"
   version="1.1"
   id="svg1"
   xmlns="http://www.w3.org/2000/svg"
   xmlns:svg="http://www.w3.org/2000/svg">
  <defs
     id="defs1" />
  <g
     id="layer1">
    <rect
       style="fill:#274625;fill-opacity:1;stroke:none;stroke-width:10"
       id="rect1"
       width="256"
       height="256"
       x="0"
       y="0"
       ry="128" />
    <g
       id="g2"
       transform="matrix(0.87046269,0,0,0.87046269,17.815446,13.693036)"
       style="stroke-width:1.14881">
      <path
         id="path1"
         style="color:#000000;display:inline;fill:#56b3aa;fill-opacity:1;stroke-width:1.14881;-inkscape-stroke:none"
         d="m 101.29096,33.404416 c -3.053751,-0.03416 -6.159172,0.528738 -9.146481,1.759766 L 34.861275,58.769651 C 22.912037,63.693766 17.153957,77.523538 22.078072,89.472776 l 41.091797,99.716794 c 4.924117,11.94925 18.753886,17.70732 30.703125,12.78321 L 151.1562,178.36731 c 11.94923,-4.92412 17.70536,-18.75193 12.78125,-30.70117 L 122.84565,47.949339 C 119.15256,38.98741 110.45222,33.506908 101.29096,33.404416 Z" />
      <path
         id="path5"
         style="color:#000000;fill:#56b37b;fill-opacity:1;stroke-width:1.14881;-inkscape-stroke:none"
         d="m 129.00971,43.464963 c 0.26073,0.539611 0.54056,1.066545 0.77148,1.626954 l 1.8047,4.380859 39.28711,95.335934 c 6.45773,15.67085 -1.18851,34.03445 -16.85938,40.49219 l -2.70508,1.11524 -14.45703,5.95703 h -0.002 l -14.45313,5.95703 41.53907,0.12323 c 12.92398,0.0387 23.54923,-10.51938 23.58788,-23.44335 L 187.8456,67.158513 C 187.8843,54.234542 177.32229,43.609275 164.39834,43.570622 Z" />
      <path
         id="path10"
         style="color:#000000;fill:#5fb356;fill-opacity:1;stroke-width:1.14881;-inkscape-stroke:none"
         d="m 195.32612,73.990355 -0.0195,6.324217 -1e-5,0.0625 -0.0195,6.265625 -0.26367,88.388663 c -0.0507,16.94922 -14.16016,30.97256 -31.10938,30.92188 l -24.61328,-0.0723 -13.67969,-0.041 -5.22852,-0.0156 -16.79882,-0.0508 c 1.53655,0.97193 3.20039,1.78845 4.99414,2.39453 l 58.69727,19.83399 c 12.24398,4.1371 25.66953,-2.50797 29.80663,-14.75196 l 34.52539,-102.17773 c 4.1371,-12.243974 -2.50992,-25.667584 -14.7539,-29.804684 z" />
    </g>
  </g>
</svg>
